<svg version="1.0" xmlns="http://www.w3.org/2000/svg"
 width="114.000000pt" height="114.000000pt" viewBox="0 0 114.000000 114.000000"
 preserveAspectRatio="xMidYMid meet">
<style>
    .favicon {
        fill: #000000;
    }
    @media (prefers-color-scheme: dark) {
      .favicon {
        fill: #FFFFFF;
      }
    }
  </style>
<g transform="translate(0.000000,114.000000) scale(0.100000,-0.100000)"
stroke="none" class="favicon">
<path d="M0 570 l0 -570 570 0 570 0 0 570 0 570 -570 0 -570 0 0 -570z m1048
-2 l-3 -473 -475 0 -475 0 -3 473 -2 472 480 0 480 0 -2 -472z"/>
<path d="M300 870 l0 -70 165 0 c91 0 165 -3 165 -7 -1 -5 -79 -114 -175 -243
l-175 -235 2 -70 3 -70 290 0 290 0 0 70 0 70 -186 5 -186 5 178 240 178 240
1 68 0 67 -275 0 -275 0 0 -70z"/>
</g>
</svg>
